<svg width="122" height="123" xmlns="http://www.w3.org/2000/svg"><g fill="none" fill-rule="evenodd"><ellipse stroke="#979797" stroke-width=".5" fill="#FFF" cx="60.46" cy="61.872" rx="59.381" ry="59.701"/><path d="M61 0C27.366 0 0 27.514 0 61.33c0 33.815 27.366 61.328 61 61.328s61-27.513 61-61.329C122 27.514 94.634 0 61 0zm0 7.48c29.582 0 53.561 24.375 53.561 54.445 0 12.099-3.889 23.278-10.46 32.312-1.86-6.454-4.304-10.556-6.739-13.192-4.03-4.365-8.02-4.713-9.236-4.997-.232-.048-.464-.102-.696-.145-.743-.701-1.338-1.681-1.791-2.849-1.15-2.935-1.486-7.107-1.455-11.253.069-7.461 1.354-14.858 1.354-14.858 0-1.034-.02-2.025-.063-2.994l-.047-.9a53.797 53.797 0 00-.127-1.928c-.026-.327-.063-.648-.09-.975a40.306 40.306 0 00-.194-1.692 27.27 27.27 0 00-.127-.922 63.297 63.297 0 00-.268-1.65c-.048-.246-.09-.497-.137-.744a42.254 42.254 0 00-.48-2.126c-.01-.027-.01-.048-.02-.08a35.056 35.056 0 00-.591-2.046c-.069-.199-.132-.38-.195-.574a29.73 29.73 0 00-.474-1.323c-.085-.214-.164-.428-.253-.632-.153-.385-.322-.76-.49-1.124-.09-.199-.18-.402-.274-.59-.185-.37-.369-.723-.553-1.065-.09-.161-.174-.327-.264-.482-.248-.44-.522-.868-.78-1.275-.026-.038-.047-.08-.079-.123-.3-.445-.6-.873-.911-1.27-.09-.118-.185-.225-.28-.337a20.733 20.733 0 00-.669-.809 23.278 23.278 0 01-.353-.38 18.27 18.27 0 00-.643-.659 10.833 10.833 0 00-.358-.348 22.738 22.738 0 00-.68-.6c-.11-.096-.221-.193-.332-.279-.29-.23-.58-.455-.874-.658-.048-.038-.095-.08-.143-.107-.337-.242-.69-.466-1.032-.675-.1-.06-.2-.113-.3-.172a14.48 14.48 0 00-.733-.407c-.132-.07-.253-.128-.38-.193-.22-.107-.437-.214-.658-.31a20.397 20.397 0 00-.38-.166 10.21 10.21 0 00-.669-.263c-.11-.043-.232-.09-.337-.134a12.923 12.923 0 00-.77-.257c-.068-.021-.141-.048-.21-.07a19.132 19.132 0 00-.938-.256c-.105-.027-.195-.043-.295-.065-.21-.048-.421-.096-.622-.139a4.837 4.837 0 00-.347-.064c-.18-.032-.359-.065-.522-.091a4.612 4.612 0 00-.337-.049l-.496-.064c-.105-.01-.205-.027-.305-.037-.169-.016-.332-.032-.49-.043-.085-.006-.169-.016-.243-.022a13.823 13.823 0 00-.637-.026h-.269c-.1 0-.205-.006-.306-.006-.495 0-.89.022-1.175.043-.036 0-.063 0-.094.005-.1.006-.185.017-.243.022-.02.005-.047.005-.063.01-.058 0-.09.006-.09.006-.29-.021-.574-.032-.859-.043-.284.01-.569.022-.858.038 0 0-.037-.006-.09-.011-.021 0-.047-.005-.063-.005-.058-.006-.142-.017-.243-.022-.026 0-.058 0-.094-.005-.285-.027-.68-.043-1.175-.043h-.564c-.2.005-.422.016-.643.027l-.21.016a9.76 9.76 0 00-.528.048c-.095.005-.195.021-.284.032l-.522.064c-.105.016-.205.033-.31.043-.19.032-.375.06-.57.097-.1.021-.205.037-.305.053a54.675 54.675 0 00-.923.204c-.316.075-.637.16-.959.262-.052.01-.105.032-.158.048a37.68 37.68 0 00-.822.274c-.105.037-.21.08-.321.123-.232.09-.464.182-.696.278a9.048 9.048 0 00-.353.156c-.231.096-.463.214-.695.326-.116.06-.232.113-.348.177-.253.134-.516.279-.774.434-.085.053-.174.096-.259.15-.347.209-.695.434-1.048.68a1.245 1.245 0 00-.095.075c-.311.22-.617.455-.922.702-.106.08-.206.171-.311.257a24.53 24.53 0 00-.706.621c-.116.113-.232.225-.348.332-.226.214-.442.445-.659.68-.11.118-.22.241-.331.36-.238.262-.47.546-.696.83-.084.107-.169.203-.253.316-.316.401-.622.824-.922 1.28-.021.032-.042.07-.063.101-.274.413-.532.847-.801 1.302-.084.15-.163.31-.253.466-.19.353-.38.712-.559 1.082-.094.193-.179.385-.268.584-.169.37-.332.75-.496 1.14-.079.204-.168.408-.247.622-.164.434-.327.884-.48 1.344-.058.188-.132.364-.184.557a38.486 38.486 0 00-.596 2.057c-.005.027-.015.059-.02.086-.175.68-.338 1.392-.48 2.12-.048.242-.084.493-.137.734-.095.536-.19 1.093-.274 1.655l-.127.911a39.574 39.574 0 00-.195 1.698c-.036.321-.063.643-.094.975a96.869 96.869 0 00-.132 1.917c-.016.305-.037.595-.048.905-.036.97-.063 1.96-.063 2.994v.006s1.286 7.396 1.354 14.858c.037 4.145-.3 8.318-1.449 11.258-.463 1.173-1.043 2.148-1.791 2.844-.243.048-.464.097-.69.15-1.223.29-5.212.632-9.237 4.997-2.43 2.636-4.874 6.738-6.74 13.171C11.328 85.191 7.44 74.019 7.44 61.924c0-30.07 23.98-54.445 53.561-54.445zM42.547 45.372a.825.825 0 01.35-.147c.282-.047.58.058.872.288 0 0 0-.021.005-.063.101-.966 1.403-11.761 9.633-11.01l25.154 12.722 2.045-1.931c.064.01.139.036.202.062.888.413 1.276 2.47.845 4.819-.324 1.8-1.041 3.283-1.796 3.92-.308.25-.616.365-.914.318a.91.91 0 01-.462-.235c-1.679 5.127-4.888 10.232-8.932 13.307-2.364 1.79-5.01 2.881-7.81 2.881-2.817 0-5.479-1.107-7.854-2.918-4.027-3.075-7.215-8.164-8.884-13.27a.958.958 0 01-.457.235c-.34.063-.712-.11-1.057-.454-.707-.694-1.35-2.098-1.658-3.785-.398-2.223-.074-4.18.717-4.74z" fill="#000"/><path d="M54.301 96.02l-5.894 3.77 10.974 22.868-4.113-45.59-8.843 6.463 1.433 7.339 6.177 2.633c.54.23.902.683.954 1.196.057.513-.204 1.014-.688 1.322zm14.743-2.516l6.178-2.633 1.433-7.34-8.844-6.463-4.112 45.59 10.974-22.87-5.894-3.766c-.484-.308-.745-.81-.689-1.322.052-.513.414-.966.954-1.196z" fill="#FFF"/><g transform="translate(60.46 78.154)" fill="#FFF"><ellipse cx="1.08" cy="1.085" rx="1.08" ry="1.085"/><ellipse cx="1.08" cy="8.684" rx="1.08" ry="1.085"/><ellipse cx="1.08" cy="15.197" rx="1.08" ry="1.085"/><ellipse cx="1.08" cy="21.709" rx="1.08" ry="1.085"/><ellipse cx="1.08" cy="28.222" rx="1.08" ry="1.085"/></g><path d="M54.301 94.301l-5.894 3.86 10.974 23.412-4.113-46.676-8.843 6.617 1.433 7.514 6.177 2.695c.54.236.902.7.954 1.225.057.525-.204 1.038-.688 1.353zm14.743-2.576l6.178-2.696 1.433-7.515-8.844-6.617-4.112 46.676 10.974-23.414-5.894-3.856c-.484-.316-.745-.83-.689-1.354.052-.525.414-.989.954-1.225z" fill="#FFF"/><path d="M59.073 56.092c.19-.137.375-.068.554.072.659.51 1.108.746 2.006.746.536 0 .948-.102 1.29-.265.311-.148.967-.79 1.284-.553.527.584 1.39-.219.86-.807 0 0-.061-.074-.181-.16-1.247-.932-2.016.59-3.256.59-1.234 0-1.98-1.533-3.235-.59-.12.091-.182.16-.182.16-.524.586.334 1.39.86.807zm2.568 3.861c2.24-1.072 5.146.176 6.985-.394l.115-.041.042-.013c.72-.275 1.13.818.437 1.11a3.814 3.814 0 01-.317.11c-1.46.555-2.043 1.818-3.34 2.733-1.088.921-2.29 1.637-3.85 1.67h-.122c-1.793-.038-3.11-.968-4.323-2.09-.486-.4-.988-.892-1.562-1.473a3.59 3.59 0 00-1.297-.838 2.791 2.791 0 01-.321-.112c-.699-.29-.287-1.382.436-1.107l.042.012.115.041c1.826.568 4.727-.68 6.96.392zm-.577 3.9c-.306-.046-.51-.06-.803-.171-.429-.173-.67.484-.244.654.366.145.573.156.945.207.454.068.556-.624.102-.69zm-4.096-2.751c.437.438.886.896 1.362 1.316.744.52 1.727.897 3.328.905 1.592-.008 2.57-.385 3.313-.905.474-.417.925-.876 1.36-1.314a65.588 65.588 0 01-4.626.184h-.102a67.308 67.308 0 01-4.635-.186zm.866-15.357l-.03-.048-.025-.049-.035-.058-.033-.051-.035-.059-.037-.058-.03-.041-.027-.046-.053-.069-.037-.056-.067-.084-.043-.05a4.725 4.725 0 00-.938-.866 5.801 5.801 0 00-1.32-.68c-.75-.146-1.7-.27-2.896-.372-.98.091-1.878.402-2.602.893l-.938-.425c-.71-.32-1.184.77-.473 1.093l.469.211a4.08 4.08 0 00-.143.189l-1.052-.306c-.751-.222-1.07.924-.325 1.143l1.54.454c.331.094.576-.072.706-.341.459-.869 1.569-1.567 3.038-1.671a1.763 1.763 0 00-.94 1.444c-.063.968.65 1.81 1.598 1.88.95.068 1.774-.665 1.841-1.636a1.772 1.772 0 00-.668-1.515c.943.252 1.696.744 2.168 1.312.19.231.331.473.419.72a.66.66 0 00.202.293.557.557 0 00.117.069l.05.02.06.018.047.008a.657.657 0 00.626-.288.619.619 0 00.048-.558l-.018-.056c-.03-.076-.065-.15-.117-.265l-.047-.099zm6.74-4.502c-.362.25-.539.585-.581.919.908-.262 1.751-.642 2.944-.98 2.177-.617 6.106-1.096 9.245-.854-1.345-.774-2.727-1.176-4.448-1.242-2.584-.102-5.047.707-7.16 2.157zm7.162 4.596a1.75 1.75 0 00-.935-1.444c1.467.102 2.58.803 3.053 1.707.112.234.36.402.686.308l1.537-.45c.329-.09.449-.368.419-.627a3.768 3.768 0 00-.095-.27c-.12-.204-.354-.329-.651-.242l-1.053.308a1.758 1.758 0 00-.142-.189l.467-.214c.71-.323.239-1.413-.472-1.092l-.935.423c-.739-.507-1.674-.82-2.685-.904a29.46 29.46 0 00-2.629.31c-1.457.484-2.624 1.455-3.078 2.705-.284.78.866 1.215 1.15.43.314-.86 1.262-1.675 2.592-2.03a1.784 1.784 0 00-.671 1.516c.067.968.89 1.704 1.84 1.635.954-.066 1.67-.91 1.602-1.88zm-12.48-3.608a1.292 1.292 0 00-.589-.988c-2.115-1.447-4.575-2.26-7.164-2.155-1.717.069-3.101.466-4.458 1.25 3.138-.231 6.955.24 9.09.843 1.07.306 2.068.764 3.12 1.05zm4.54 7.095c-.836-2.203-.813-3.29-2.258-3.296-1.446.006-1.427 1.093-2.257 3.296-.84 2.238-3.153 5.246-8.591 4.706-5.778-.58-5.945-4.5-6.162-6.295-.137-1.136-.147-1.847-.828-2.358-.377-.34-.514-.581-.514-.882v-2.152c0-.198.1-.371.254-.476.729-.433 3.238-1.052 7.058-.909 4.455.17 7.336 1.492 8.356 1.862.983.351 2.565.343 2.687.343.122 0 1.701.008 2.682-.343 1.02-.37 3.901-1.694 8.357-1.862 3.819-.143 6.328.479 7.057.91a.57.57 0 01.257.475v2.152c0 .3-.14.54-.517.882-.678.511-.69 1.22-.825 2.358-.215 1.795-.387 5.715-6.162 6.295-5.443.54-7.758-2.468-8.594-4.706zM51.857 42.47c-3.303-.247-6.224.071-6.186 5.055.025 3.9 2.699 5.812 6.01 5.812 4.12 0 6.558-2.715 6.81-5.672.264-3.023 1.022-4.63-6.634-5.195zm19.535 10.87c3.31 0 5.985-1.916 6.01-5.812.037-4.984-2.884-5.3-6.187-5.055-7.66.562-6.9 2.172-6.638 5.195.257 2.957 2.694 5.671 6.815 5.671z" fill="#000"/><path stroke="#FFF" stroke-width="1.008" stroke-linecap="square" d="M82.593 92.808h6.478"/></g></svg>